<svg xmlns="http://www.w3.org/2000/svg" xml:space="preserve" width="2000" height="1500" data-id="lg_rEhAALg0VKN3k39II3" data-version="1" viewBox="0 0 2000 1500"><path fill="#61777f" stroke="transparent" d="M0 0h2000v1500H0z"/><g data-padding="20"><g transform="translate(-1039.835 -776.796)scale(1.99255)"><rect width="607.131" height="545.79" x="296.595" y="93.357" fill="none" rx="0" ry="0" transform="translate(423.57 400)"/><path fill="#fff" d="m953.7 607.892 99.02 304.29v1.45h-82.11q-3.39-11.59-7.97-26.56-4.59-14.98-9.91-31.88H848.41q-9.66 33.81-17.87 58.44h-82.11v-.96l99.01-304.78Zm-52.16 55.07h-1.94q-4.83 24.63-14 59.89-9.18 35.26-19.32 71.96h69.07q-10.63-36.7-19.81-71.96-9.17-35.26-14-59.89m172.91 184.98 1.45-.96q37.67 10.62 83.56 10.62 22.22 0 33.33-1.44 11.1-1.45 14.97-4.83 3.86-3.39 3.86-9.18 0-8.21-6.04-10.14-6.03-1.94-23.9-5.32l-38.16-7.24q-36.71-7.25-52.89-22.94-16.18-15.7-16.18-47.1 0-42.5 25.36-57.96 25.36-15.45 80.9-15.45 33.33 0 58.68 3.62 25.36 3.62 42.27 8.93l-.97 58.45-1.45 1.45q-39.12-12.56-85.49-12.56-22.7 0-31.64 3.14-8.93 3.14-8.93 12.31 0 4.83 2.66 7.73 2.65 2.9 12.31 5.56 9.66 2.65 30.43 6.52l35.26 6.76q29.46 6.28 43.47 20.77t14.01 45.88q0 27.53-10.15 43.72-10.14 16.18-34.05 22.94t-65.93 6.76q-31.87 0-58.68-3.14t-48.06-7.49Z"/></g><path fill="transparent" stroke="transparent" stroke-width="2.06" d="M374.657 187.5h1250.686v1125H374.657z"/></g></svg>