<?xml version="1.0" standalone="no"?>
<!DOCTYPE svg PUBLIC "-//W3C//DTD SVG 20010904//EN"
 "http://www.w3.org/TR/2001/REC-SVG-20010904/DTD/svg10.dtd">
<svg version="1.0" xmlns="http://www.w3.org/2000/svg"
 width="499.000000pt" height="374.000000pt" viewBox="0 0 499.000000 374.000000"
 preserveAspectRatio="xMidYMid meet">

<g transform="translate(0.000000,374.000000) scale(0.100000,-0.100000)"
fill="#E2D4E0" stroke="none">
<path d="M2431 2739 c-105 -32 -213 -163 -237 -287 -6 -29 -10 -33 -28 -27
-11 4 -55 9 -97 12 -68 5 -83 3 -138 -22 -104 -47 -160 -133 -166 -252 l-2
-65 -52 -23 c-112 -52 -162 -211 -110 -351 12 -33 39 -74 64 -101 38 -39 42
-48 34 -70 -15 -39 -10 -125 10 -168 32 -72 115 -132 202 -149 35 -6 36 -8 42
-60 6 -60 33 -120 69 -152 49 -45 89 -59 173 -59 102 0 171 31 242 109 l48 53
28 -39 c15 -21 49 -52 75 -69 171 -108 364 -60 416 104 10 32 16 69 14 82 -4
20 0 24 31 30 20 4 54 15 76 24 118 52 182 181 144 290 -11 31 -9 35 29 74 62
63 87 126 86 217 0 57 -6 87 -23 122 -27 57 -90 116 -131 125 -30 5 -30 6 -30
72 0 79 -24 139 -78 194 -61 64 -104 81 -202 82 -47 0 -97 -4 -112 -8 -25 -8
-27 -7 -43 50 -22 74 -53 127 -107 182 -72 73 -154 102 -227 80z m130 -131
c24 -19 56 -59 75 -93 43 -78 52 -146 29 -228 -12 -41 -15 -78 -11 -113 l6
-52 -32 -6 c-38 -8 -124 -61 -132 -83 -5 -12 -13 -9 -44 18 -33 30 -81 56
-134 73 -14 4 -15 10 -7 42 8 28 7 54 -7 110 -28 120 -9 209 63 294 64 77 127
89 194 38z m-427 -288 c46 -22 62 -42 71 -93 6 -28 3 -39 -14 -56 -33 -33 -64
-23 -72 24 -3 10 -16 26 -31 34 -24 14 -28 14 -48 -4 -18 -16 -21 -28 -17 -64
3 -25 13 -52 25 -63 l20 -21 -27 -22 c-14 -13 -33 -35 -40 -49 -18 -33 -23
-33 -42 7 -8 17 -32 43 -52 56 -35 23 -37 27 -37 77 0 90 31 141 105 175 52
24 109 24 159 -1z m886 -14 c55 -36 84 -100 77 -170 -2 -27 -10 -52 -16 -54
-25 -8 -69 -53 -81 -82 l-12 -30 -25 38 c-14 20 -34 43 -45 50 -18 13 -18 14
1 38 23 30 35 76 26 104 -15 46 -81 47 -91 1 -4 -14 -11 -32 -17 -38 -24 -32
-77 2 -77 49 0 111 152 166 260 94z m-715 -287 c68 -18 125 -86 125 -148 0
-43 -14 -74 -49 -107 -80 -76 -213 -69 -284 15 -68 82 -30 197 79 236 48 17
77 18 129 4z m478 -1 c89 -27 143 -120 112 -195 -21 -50 -42 -72 -90 -94 -120
-55 -265 21 -265 138 0 76 42 129 120 151 48 14 76 14 123 0z m-949 -28 c51
-19 55 -90 4 -90 -45 0 -76 -58 -46 -88 21 -21 92 -14 132 13 31 21 36 22 36
7 0 -36 49 -120 90 -155 60 -51 125 -70 219 -65 83 5 127 23 178 70 l32 31 38
-30 c67 -53 103 -66 191 -71 77 -4 87 -2 147 27 75 37 119 86 142 157 l16 51
35 -23 c23 -16 49 -24 79 -24 37 0 45 4 55 26 15 33 2 55 -40 70 -44 14 -56
28 -48 57 9 37 63 53 110 33 99 -41 101 -229 4 -311 -24 -20 -40 -25 -86 -25
-94 0 -152 -52 -152 -134 0 -74 95 -88 102 -15 4 38 25 54 62 45 53 -13 57
-89 9 -147 -57 -68 -156 -83 -236 -35 -36 20 -51 38 -72 83 -15 32 -30 65 -34
73 -12 23 -62 25 -78 4 -19 -26 -16 -52 15 -118 l28 -59 -29 -30 c-35 -38 -33
-75 5 -96 26 -15 29 -14 56 12 76 73 151 -22 89 -114 -42 -63 -138 -73 -223
-23 -89 51 -124 129 -124 271 0 70 -3 86 -20 103 -24 24 -38 25 -66 5 -19 -12
-22 -27 -26 -119 -4 -87 -9 -113 -32 -159 -63 -129 -234 -177 -309 -87 -37 43
-44 86 -20 119 27 36 62 38 97 6 33 -30 50 -31 76 -5 27 27 25 43 -11 85 -29
33 -30 37 -16 58 8 13 22 45 31 71 15 45 15 51 1 73 -12 18 -24 23 -43 21 -22
-2 -32 -14 -58 -69 -64 -133 -164 -169 -282 -102 -94 53 -96 183 -4 183 23 0
26 -4 36 -52 13 -59 88 -59 101 1 9 43 -25 115 -64 135 -17 9 -55 16 -87 16
-55 0 -59 2 -99 43 -68 72 -82 168 -34 246 11 18 34 38 52 46 39 17 40 17 71
5z"/>
<path d="M2162 1938 c-56 -56 77 -171 161 -139 55 21 27 100 -50 140 -29 15
-96 14 -111 -1z"/>
<path d="M2695 1938 c-87 -48 -107 -127 -36 -143 58 -12 161 55 161 105 0 44
-74 66 -125 38z"/>
</g>
</svg>
