<?xml version="1.0" standalone="no"?>
<!DOCTYPE svg PUBLIC "-//W3C//DTD SVG 20010904//EN"
 "http://www.w3.org/TR/2001/REC-SVG-20010904/DTD/svg10.dtd">
<svg version="1.0" xmlns="http://www.w3.org/2000/svg"
 width="184.000000pt" height="184.000000pt" viewBox="0 0 184.000000 184.000000"
 preserveAspectRatio="xMidYMid meet">

<g transform="translate(0.000000,184.000000) scale(0.100000,-0.100000)"
fill="#E2D4E0" stroke="none" stroke-width="10px">
<path d="M856 1794 c-90 -28 -201 -169 -222 -282 -6 -29 -10 -33 -28 -27 -11
4 -55 9 -97 12 -68 5 -83 3 -138 -22 -104 -47 -160 -133 -166 -252 l-2 -65
-52 -23 c-56 -26 -103 -87 -122 -160 -27 -97 14 -241 86 -304 31 -27 34 -33
25 -56 -16 -41 -11 -126 9 -170 32 -72 115 -132 202 -149 35 -6 36 -8 42 -60
6 -60 33 -120 69 -152 49 -45 89 -59 173 -59 102 0 171 31 242 109 l48 53 28
-39 c15 -21 49 -52 75 -69 171 -108 364 -60 416 104 10 32 16 69 14 82 -4 20
0 24 31 30 20 4 54 15 76 24 118 52 182 181 144 290 -11 31 -9 35 29 74 62 63
87 126 86 217 0 57 -6 87 -23 122 -27 57 -90 116 -131 125 -30 5 -30 6 -30 72
0 169 -136 291 -308 278 -37 -3 -77 -8 -89 -12 -19 -6 -23 -1 -38 51 -21 73
-52 127 -105 181 -75 79 -157 104 -244 77z m145 -126 c24 -19 56 -59 75 -93
43 -78 52 -146 29 -228 -12 -41 -15 -78 -11 -113 6 -51 5 -52 -23 -57 -38 -8
-127 -63 -135 -83 -5 -13 -13 -10 -44 17 -33 30 -81 56 -134 72 -14 5 -15 12
-7 47 7 31 5 58 -7 107 -28 114 -8 209 63 293 64 77 127 89 194 38z m-427
-288 c46 -22 62 -42 71 -93 6 -28 3 -39 -14 -56 -33 -33 -64 -23 -72 24 -3 10
-16 26 -31 34 -24 14 -28 14 -48 -4 -18 -16 -21 -28 -17 -64 3 -25 13 -52 25
-63 l20 -21 -27 -22 c-14 -13 -33 -35 -40 -49 -18 -33 -23 -33 -42 7 -8 17
-32 43 -52 56 -35 23 -37 27 -37 78 0 64 17 109 56 144 56 51 140 63 208 29z
m886 -14 c55 -36 84 -100 77 -170 -2 -27 -10 -52 -16 -54 -25 -8 -69 -53 -81
-82 l-12 -30 -29 44 c-17 24 -37 47 -45 50 -13 5 -13 10 5 34 25 35 35 74 26
101 -15 47 -80 49 -91 2 -4 -14 -11 -32 -17 -38 -24 -32 -77 2 -77 49 0 111
152 166 260 94z m-715 -287 c77 -21 130 -93 122 -164 -16 -145 -225 -195 -326
-80 -73 83 -36 201 75 240 48 17 77 18 129 4z m478 -1 c89 -27 143 -120 112
-195 -21 -50 -42 -72 -90 -94 -84 -39 -195 -11 -242 60 -46 68 -22 171 49 207
68 35 109 41 171 22z m-949 -28 c51 -19 55 -90 4 -90 -45 0 -76 -58 -46 -88
21 -21 90 -14 131 13 33 23 37 24 37 8 0 -37 49 -120 90 -156 60 -51 125 -70
219 -65 83 5 127 23 178 71 l32 30 32 -27 c69 -58 107 -71 209 -71 87 0 100 3
149 30 63 35 113 96 131 160 l13 46 23 -22 c17 -16 40 -24 79 -27 51 -4 55 -3
67 23 15 34 3 56 -40 71 -44 14 -56 28 -48 57 4 17 17 29 40 37 108 35 187
-120 125 -247 -33 -68 -70 -93 -137 -93 -94 0 -152 -52 -152 -134 0 -74 95
-88 102 -15 4 38 25 54 62 45 53 -13 57 -89 9 -147 -58 -68 -155 -83 -235 -36
-37 21 -52 39 -73 84 -15 32 -30 65 -34 73 -5 8 -22 16 -39 18 -58 6 -65 -53
-18 -146 l22 -44 -28 -31 c-36 -38 -34 -75 4 -96 26 -15 29 -14 56 12 76 73
151 -22 89 -114 -42 -63 -138 -73 -223 -23 -89 51 -124 129 -124 271 0 70 -3
86 -20 103 -24 24 -38 25 -66 5 -19 -12 -22 -27 -26 -119 -4 -87 -9 -113 -32
-159 -79 -163 -307 -180 -341 -26 -15 69 63 115 110 65 29 -31 48 -33 75 -6
27 27 25 43 -11 85 -29 33 -30 37 -16 58 8 13 22 45 31 71 15 45 15 51 1 73
-12 18 -24 23 -43 21 -22 -2 -32 -14 -58 -69 -64 -133 -164 -169 -282 -102
-94 53 -96 183 -4 183 23 0 26 -4 36 -52 14 -62 89 -58 101 5 9 45 -24 111
-65 132 -16 8 -55 15 -86 15 -55 0 -59 2 -99 43 -68 72 -82 168 -34 246 11 18
34 38 52 46 39 17 40 17 71 5z"/>
<path d="M602 998 c-55 -55 72 -168 156 -140 21 7 28 16 30 41 4 37 -22 72
-70 97 -33 17 -100 18 -116 2z"/>
<path d="M1135 998 c-87 -48 -107 -127 -36 -143 58 -12 161 55 161 105 0 44
-74 66 -125 38z"/>
</g>
</svg>
